<svg width="140" height="140" viewBox="0 0 140 140" fill="none" xmlns="http://www.w3.org/2000/svg">
<g clip-path="url(#clip0_10_1591)">
<path d="M62.2657 101.315C62.295 102.886 60.4677 104.543 58.5233 104.633C58.7833 105.849 59.1018 107.035 58.5819 108.277C57.8275 110.234 55.7988 111.3 53.7958 111.034C50.577 110.589 49.7054 106.055 52.8107 104.693C53.9129 104.218 55.5645 105.314 54.3487 106.41C53.6822 107.031 52.58 107.211 53.0707 108.513C53.36 109.224 54.1436 109.373 54.7808 109.253C55.883 109.048 56.4909 108.097 56.5495 107.031C56.696 106.111 56.3481 105.164 56.1137 104.214C54.6636 103.503 53.5614 101.872 53.9679 100.215C54.2865 98.763 56.0551 99.3541 55.3594 100.274C55.0408 100.896 55.5059 101.786 56.0259 102.261C56.1723 101.58 56.403 100.929 56.7802 100.304C58.234 98.026 62.2071 97.9063 62.2657 101.315ZM60.0905 100.248C58.8125 100.013 58.2926 101.73 58.2633 102.65C58.2633 102.71 58.2633 102.77 58.2633 102.83C58.699 102.77 59.1348 102.624 59.4827 102.385C60.3798 101.76 61.05 100.574 60.0905 100.248Z" fill="#767676"/>
<path d="M66.0673 101.049C65.778 101.404 65.2251 102.115 64.6172 103.005C64.8186 103.005 64.9944 103.035 65.0823 103.035C65.5473 103.065 65.053 104.311 64.5037 104.311C64.3023 104.311 64.0094 104.281 63.7201 104.281C62.3579 106.268 60.9956 108.4 61.197 108.58C61.5742 108.995 63.4015 106.893 64.1558 106.002C64.6795 105.411 65.3459 106.092 64.793 106.713C63.4894 108.105 61.5449 110.832 59.9776 110.537C58.8168 110.357 58.3517 109.025 59.3112 107.693C59.7176 107.102 60.5892 105.677 61.4863 104.225C61.3398 104.225 61.197 104.225 61.0505 104.225C60.5269 104.225 61.0798 102.949 61.6035 102.919C61.75 102.919 62.01 102.919 62.2993 102.919C63.2257 101.438 64.0386 100.162 64.3023 99.9263C64.7674 99.4811 65.3166 99.1257 65.7817 99.2454C66.2394 99.3876 66.9352 100.042 66.0673 101.049Z" fill="#767676"/>
<path d="M72.244 106.739C70.966 108.131 69.0545 110.829 67.4872 110.563C66.9086 110.443 66.6742 109.912 66.7328 109.257C66.2385 109.818 65.572 110.324 64.847 110.324C62.4411 110.324 63.1369 107.211 64.5577 105.523C65.9785 103.832 67.7765 102.65 68.908 103.122C69.2852 103.271 69.5159 103.567 69.633 103.892C69.6916 103.802 69.7209 103.743 69.7795 103.686C70.2446 103.241 70.8232 102.886 71.2589 103.035C71.7533 103.155 72.4197 103.836 71.5775 104.843C70.5925 105.969 68.7359 108.221 69.0252 108.517C69.2852 108.782 70.911 106.885 71.6654 105.999C72.1854 105.404 72.7933 106.145 72.244 106.739ZM67.3993 106.739C68.3001 105.613 68.8494 104.667 68.648 104.487C68.4759 104.308 67.5751 105.138 66.59 106.354C65.6343 107.54 65.1399 108.696 65.2571 108.812C65.5134 109.078 66.4985 107.866 67.3993 106.739Z" fill="#767676"/>
<path d="M77.3501 101.049C77.0608 101.404 76.5078 102.115 75.9 103.005C76.1014 103.005 76.2771 103.035 76.365 103.035C76.8301 103.065 76.3357 104.311 75.7864 104.311C75.585 104.311 75.2921 104.281 75.0028 104.281C73.6406 106.268 72.2784 108.4 72.4798 108.58C72.8569 108.995 74.6842 106.893 75.4386 106.002C75.9622 105.411 76.6287 106.092 76.0757 106.713C74.7721 108.105 72.8276 110.832 71.2603 110.537C70.0995 110.357 69.6345 109.025 70.5939 107.693C71.0003 107.102 71.8719 105.677 72.769 104.225C72.6226 104.225 72.4798 104.225 72.3333 104.225C71.8096 104.225 72.3626 102.949 72.8862 102.919C73.0327 102.919 73.2927 102.919 73.582 102.919C74.5085 101.438 75.3214 100.162 75.585 99.9263C76.0501 99.4811 76.5994 99.1257 77.0645 99.2454C77.5222 99.3876 78.2179 100.042 77.3501 101.049Z" fill="#767676"/>
<path d="M79.4939 106.739C78.1866 108.131 76.3044 110.829 74.7078 110.563C73.5762 110.357 73.4591 109.022 74.3892 107.69C75.3742 106.328 76.4765 104.222 77.0001 103.69C77.4652 103.245 78.0438 102.89 78.4795 103.039C78.9739 103.159 79.6697 103.84 78.7981 104.846C77.8131 105.973 75.9565 108.225 76.2458 108.52C76.5058 108.786 78.161 106.889 78.9153 106.002C79.406 105.404 80.0432 106.145 79.4939 106.739ZM79.5525 102.235C78.161 102.235 79.5232 99.0923 81.1198 99.4477C82.5955 99.7732 80.6547 102.59 79.5525 102.235Z" fill="#767676"/>
<path d="M86.4566 106.739C86.0208 107.184 85.5595 107.775 85.0651 108.34C83.9629 109.556 83.615 110.001 82.542 109.792C82.3663 109.762 82.2528 109.702 82.1356 109.612C81.4398 110.117 80.7441 110.383 80.1618 110.383C78.188 110.383 77.5509 108.337 78.741 106.294C79.9311 104.221 81.8719 102.885 83.2671 102.885C84.7465 102.885 85.878 104.131 84.7172 106.47C84.34 107.21 83.9043 107.861 83.4392 108.426C83.6406 108.337 83.9885 108.071 84.34 107.686C84.8893 107.121 85.4716 106.44 85.8488 105.995C86.3687 105.403 87.0059 106.144 86.4566 106.739ZM83.1792 104.633C82.337 104.633 79.4954 108.722 80.3083 108.722C80.9162 108.722 84.0214 104.633 83.1792 104.633Z" fill="#767676"/>
<path d="M93.2408 106.739C91.9371 108.131 90.0513 110.828 88.4547 110.563C86.8581 110.267 87.2646 108.696 88.224 107.364C89.1504 106.032 90.3405 105.022 90.1391 104.756C89.9634 104.491 88.224 106.298 87.6747 106.889C87.0375 107.865 86.3967 108.816 85.9939 109.377C85.386 110.237 85.1224 110.563 84.4266 110.563C83.3537 110.563 83.643 109.111 84.9502 107.364C85.906 106.032 86.7482 104.637 86.8947 104.341C87.3305 103.451 87.4733 103.009 88.0848 103.009C88.5499 103.009 89.1284 103.365 89.2163 103.986C89.9121 103.425 90.6372 103.009 91.3622 103.009C92.058 103.009 93.043 103.84 92.1166 105.202C91.1901 106.563 89.7107 108.225 90 108.52C90.26 108.786 91.8859 106.889 92.6402 106.002C93.1529 105.404 93.7937 106.144 93.2408 106.739Z" fill="#767676"/>
<path d="M18.8141 64.085L19.8101 65.9781C21.1797 68.5821 20.2203 71.8558 17.7009 73.2401L15.4708 74.4672L20.0042 83.0723C20.2239 83.4876 20.0738 83.9852 19.671 84.2097L17.646 85.3246C17.2395 85.5491 16.7524 85.3957 16.5327 84.9841L6.40394 65.7649C6.18423 65.3496 6.33435 64.852 6.73716 64.6275L11.7137 61.8889C14.2367 60.5008 17.4446 61.4848 18.8141 64.085ZM15.2621 65.8472C14.9178 65.1962 14.1488 64.9343 13.5117 65.286L11.2816 66.5131L13.5886 70.8905L15.8187 69.6633C16.4559 69.3117 16.6682 68.511 16.3387 67.89L15.2621 65.8472Z" fill="#767676"/>
<path d="M25.4707 59.8126L27.1625 64.5079L29.876 63.4865C30.3081 63.3256 30.7731 63.5426 30.9306 63.9841L31.6337 65.937C31.7911 66.3785 31.5788 66.8537 31.1467 67.0145L28.4332 68.0359L30.8281 74.6841L35.1161 73.0716C35.5483 72.9108 36.0133 73.1278 36.1708 73.5692L36.8958 75.5858C37.0533 76.0273 36.8409 76.5024 36.4088 76.6633L29.1583 79.3907C28.7262 79.5515 28.2611 79.3345 28.1036 78.8931L20.7213 58.4096C20.5638 57.9681 20.7762 57.493 21.2083 57.3321L28.4552 54.6047C28.8873 54.4438 29.3523 54.6608 29.5098 55.1023L30.2349 57.1189C30.3923 57.5603 30.1799 58.0355 29.7478 58.1963L25.4707 59.8126Z" fill="#767676"/>
<path d="M43.554 51.335L44.0777 53.4863C44.1875 53.9427 43.8909 54.3991 43.4771 54.5039L40.7344 55.1998L45.1579 73.4198C45.2678 73.8762 45.0041 74.3252 44.5574 74.4374L42.3236 75.0024C41.9098 75.1071 41.4374 74.8452 41.3276 74.3888L36.904 56.1688L34.1906 56.8572C33.7438 56.9694 33.3044 56.7 33.1945 56.2436L32.6709 54.0924C32.561 53.6359 32.8247 53.187 33.2714 53.0747L42.5543 50.7215C42.9754 50.6167 43.4442 50.8786 43.554 51.335Z" fill="#767676"/>
<path d="M56.9917 61.0402L60.6829 66.2106C60.8916 66.5211 61.0088 66.9102 61.06 67.2768L61.5141 70.6028C61.5764 71.0667 61.3017 71.482 60.8476 71.5456L58.57 71.8711C58.1159 71.9347 57.6728 71.6242 57.6105 71.1603L57.2919 68.8332C57.2407 68.4666 57.1272 68.1111 56.9111 67.7333L52.5278 61.6425L53.901 71.7215C53.9633 72.1854 53.6557 72.6044 53.2016 72.668L50.9239 72.9935C50.4991 73.0533 50.0597 72.7428 49.9974 72.2789L47.0459 50.6582C46.9837 50.1942 47.3242 49.7715 47.7454 49.7116L53.3774 48.911C56.241 48.5032 58.8812 50.5684 59.2803 53.494L59.566 55.5891C59.8736 57.8489 58.7713 59.9739 56.9917 61.0402ZM53.8974 52.7346L51.3597 53.0975L52.0371 58.0546L54.5748 57.6917C55.2596 57.5945 55.7613 56.9135 55.6587 56.1466L55.3438 53.8532C55.2449 53.1199 54.5821 52.6373 53.8974 52.7346Z" fill="#767676"/>
<path d="M74.5116 51.7652L75.006 66.6369C75.0865 69.0202 73.2446 70.9993 70.9449 71.0779L67.3307 71.2013C64.9981 71.2836 63.0609 69.4354 62.984 67.0522L62.4897 52.1805C62.4091 49.7973 64.2181 47.7845 66.5507 47.7059L70.165 47.5825C72.461 47.5039 74.4311 49.3858 74.5116 51.7652ZM70.5788 52.2404C70.5641 51.769 70.1576 51.4472 69.6962 51.4659L67.2648 51.552C66.8034 51.5669 66.4225 51.9186 66.4372 52.3863L66.9059 66.4836C66.9205 66.955 67.3307 67.3441 67.7884 67.3253L70.2199 67.2393C70.6813 67.2243 71.0621 66.8053 71.0438 66.3376L70.5788 52.2404Z" fill="#767676"/>
<path d="M82.5019 48.6407L81.4326 67.4481L86.0246 67.7212C86.4824 67.7474 86.8229 68.1402 86.7973 68.6079L86.6764 70.7517C86.6508 71.2193 86.2663 71.5672 85.8086 71.5411L78.0966 71.0846C77.6389 71.0584 77.2984 70.6656 77.324 70.1979L78.5617 48.4087C78.5873 47.9411 78.9718 47.5931 79.4296 47.6193L81.7256 47.754C82.187 47.7839 82.5275 48.173 82.5019 48.6407Z" fill="#767676"/>
<path d="M94.6489 52.854L93.9495 57.8074L96.8131 58.2302C97.2671 58.2975 97.5747 58.7165 97.5088 59.1805L97.2195 61.2419C97.1536 61.7058 96.7435 62.0201 96.2894 61.9527L93.4258 61.53L92.4371 68.5448L96.9595 69.2107C97.4136 69.2781 97.7212 69.6971 97.6553 70.161L97.355 72.2898C97.2891 72.7537 96.879 73.068 96.4249 73.0006L88.7789 71.8745C88.3248 71.8072 88.0172 71.3881 88.0831 70.9242L91.1298 49.3185C91.1957 48.8546 91.6058 48.5404 92.0599 48.6077L99.7059 49.7338C100.16 49.8012 100.468 50.2202 100.402 50.6841L100.101 52.8129C100.036 53.2768 99.6254 53.591 99.1713 53.5237L94.6489 52.854Z" fill="#767676"/>
<path d="M113.254 52.8539L115.484 53.4338C115.93 53.5498 116.183 54.0324 116.07 54.4889L111.631 72.2563C111.064 74.5348 108.742 75.9378 106.516 75.3579L103.011 74.445C100.781 73.8651 99.4043 71.4931 99.9755 69.2184L104.414 51.4509C104.527 50.9945 104.974 50.6952 105.421 50.8112L107.651 51.3911C108.098 51.5071 108.35 51.9897 108.237 52.4461L103.894 69.8245C103.78 70.2809 104.073 70.7374 104.52 70.8533L106.878 71.4669C107.325 71.5829 107.797 71.3247 107.911 70.8683L112.254 53.4899C112.36 53.0372 112.807 52.7379 113.254 52.8539Z" fill="#767676"/>
<path d="M129.122 79.9523L127.932 82.8293C127.749 83.2596 127.243 83.4392 126.851 83.2633L124.742 82.3243C124.321 82.1372 124.134 81.6508 124.317 81.2206L125.339 78.8186C125.42 78.6353 125.482 78.4782 125.533 78.2836L128.576 68.0287L123.347 76.6898C123.131 77.034 122.71 77.1762 122.347 77.0153L120.055 75.9977C119.692 75.8368 119.48 75.414 119.575 75.0175L122.215 65.204L116.942 74.4675C116.832 74.6396 116.767 74.793 116.69 74.9763L115.668 77.3782C115.485 77.8085 115.009 77.9993 114.588 77.8122L112.478 76.8731C112.057 76.6861 111.871 76.1997 112.054 75.7695L113.302 72.9186C113.343 72.825 113.434 72.6118 113.57 72.3761L123.102 56.7299C123.318 56.3857 123.739 56.2435 124.131 56.4193L126.39 57.4257C126.782 57.6016 126.965 58.0094 126.87 58.406L123.9 70.0864L130.275 59.9175C130.491 59.5733 130.912 59.4311 131.275 59.592L133.567 60.6096C133.959 60.7855 134.142 61.1933 134.047 61.5898L129.338 79.3798C129.254 79.6417 129.162 79.8587 129.122 79.9523Z" fill="#767676"/>
<path d="M72.7884 78.2126C72.7738 78.2126 72.7554 78.2126 72.7408 78.2126C72.7335 78.2126 72.7262 78.2126 72.7152 78.2126C72.7079 78.2126 72.7005 78.2126 72.6895 78.2126C72.6749 78.2126 72.6566 78.2126 72.6419 78.2126C49.4146 78.2126 28.9043 84.8646 16.5271 95.0333L22.3788 98.0151L23.0855 104.94C25.1655 103.043 27.6995 101.218 30.673 99.5116C41.7209 93.1627 56.6248 89.6646 72.6383 89.6646C72.6529 89.6646 72.6712 89.6646 72.6859 89.6646C72.6932 89.6646 72.7005 89.6646 72.7115 89.6646C72.7188 89.6646 72.7262 89.6646 72.7371 89.6646C72.7518 89.6646 72.7701 89.6646 72.7848 89.6646C88.8019 89.6646 103.706 93.1627 114.75 99.5116C117.723 101.221 120.258 103.043 122.337 104.94L123.044 98.0151L128.896 95.0333C116.526 84.8646 96.0158 78.2126 72.7884 78.2126Z" fill="#767676"/>
<path d="M47.76 107.518C48.9867 107.518 48.9867 105.576 47.76 105.576C46.5333 105.576 46.5333 107.518 47.76 107.518Z" fill="#767676"/>
<path d="M96.2837 107.518C97.5104 107.518 97.5104 105.576 96.2837 105.576C95.057 105.576 95.057 107.518 96.2837 107.518Z" fill="#767676"/>
<path d="M29.5209 94.5541C29.8614 95.134 29.6783 95.8822 29.1107 96.2301C28.5505 96.5742 27.8107 96.3909 27.4702 95.8111C27.1333 95.2387 27.32 94.4793 27.8803 94.1351C28.4479 93.7872 29.184 93.9818 29.5209 94.5541Z" fill="white"/>
<path d="M35.6407 92.1109L36.0728 93.05C36.3951 93.7497 36.1058 94.5877 35.421 94.9207L33.9416 95.6316C33.8317 95.684 33.7072 95.6391 33.6559 95.5268L31.272 90.3562C31.2208 90.244 31.2647 90.1168 31.3746 90.0644L32.7295 89.4134C33.4143 89.0842 34.2309 89.3909 34.5531 90.0906L34.7911 90.6069C34.912 90.8688 34.9523 91.1419 34.9047 91.4076C35.2233 91.531 35.4869 91.7742 35.6407 92.1109ZM33.081 91.7967L33.6962 91.5011C33.861 91.4225 33.9342 91.213 33.8573 91.0446L33.6047 90.4947C33.5241 90.3188 33.3191 90.244 33.1543 90.3226L32.5391 90.6181L33.081 91.7967ZM34.6849 92.5113C34.6044 92.3354 34.3993 92.2606 34.2345 92.3392L33.4948 92.6946L34.2565 94.3483L34.9962 93.9929C35.161 93.9143 35.2342 93.7048 35.15 93.5214L34.6849 92.5113Z" fill="white"/>
<path d="M36.5369 88.8003L37.0202 90.0161L37.7233 89.7243C37.8368 89.6794 37.9577 89.7318 38.0053 89.8441L38.2067 90.3491C38.2506 90.4651 38.1993 90.5886 38.0895 90.6372L37.3864 90.929L38.0675 92.65L39.1771 92.1898C39.2869 92.1449 39.4114 92.1973 39.4554 92.3095L39.6641 92.8295C39.7081 92.9455 39.6568 93.069 39.5469 93.1176L37.6721 93.892C37.5585 93.9369 37.4377 93.8845 37.3901 93.7723L35.2882 88.4748C35.2442 88.3625 35.2955 88.2353 35.4053 88.1867L37.2802 87.4123C37.3901 87.3674 37.5146 87.4197 37.5585 87.532L37.7636 88.052C37.8075 88.1643 37.7563 88.2914 37.6464 88.3401L36.5369 88.8003Z" fill="white"/>
<path d="M40.9864 87.6924L40.9278 87.5166C40.8655 87.3333 40.6714 87.2435 40.492 87.3071L40.1185 87.4418C39.9391 87.5054 39.8402 87.6999 39.9024 87.8832L40.0745 88.3883C40.1368 88.5716 40.3309 88.6614 40.514 88.6053L40.8875 88.4706C41.6125 88.2125 42.3889 88.5978 42.6415 89.3386L42.9894 90.36C43.2384 91.0895 42.8576 91.8976 42.1435 92.152L41.77 92.2867C41.0559 92.5411 40.265 92.152 40.0159 91.4187L39.7852 90.7378C39.745 90.6218 39.8036 90.4984 39.9171 90.4572L40.4847 90.2552C40.5982 90.2141 40.719 90.2739 40.7593 90.3899L41.0047 91.1119C41.0669 91.2953 41.2647 91.3925 41.4441 91.3289L41.8176 91.1943C41.9971 91.1307 42.0922 90.9286 42.03 90.7453L41.6601 89.6641C41.5979 89.4808 41.4038 89.391 41.2244 89.4546L40.8509 89.5892C40.1331 89.8362 39.3495 89.4621 39.1005 88.7325L38.9393 88.2574C38.6903 87.5278 39.0712 86.7197 39.7852 86.4653L40.1588 86.3306C40.8838 86.0725 41.6638 86.4653 41.9128 87.1986L41.9604 87.3408C42.0007 87.4567 41.9421 87.5802 41.8286 87.6213L41.261 87.8234C41.1475 87.8683 41.0266 87.8084 40.9864 87.6924Z" fill="white"/>
<path d="M45.2492 84.9392L45.4103 85.4967C45.4433 85.6164 45.3737 85.7361 45.2638 85.7698L44.5534 85.983L45.9193 90.6968C45.9523 90.8165 45.89 90.9362 45.7729 90.9698L45.1943 91.1457C45.0881 91.1793 44.9599 91.1158 44.927 90.996L43.5611 86.2823L42.8617 86.4955C42.7445 86.5292 42.6273 86.4656 42.5943 86.3459L42.4332 85.7885C42.4003 85.6688 42.4625 85.549 42.5797 85.5154L44.9819 84.7896C45.0917 84.7597 45.2163 84.8195 45.2492 84.9392Z" fill="white"/>
<path d="M52.0697 88.3137L52.4066 88.2388C52.5055 88.2164 52.63 88.2875 52.6556 88.4072L52.7765 88.9647C52.8021 89.0844 52.7215 89.2004 52.6043 89.2303L50.9418 89.6082C50.2864 89.7579 49.6382 89.3351 49.4954 88.6729L48.7154 85.0773C48.5689 84.4076 48.9827 83.7454 49.6382 83.5994L50.3449 83.4386C51.0004 83.2889 51.6486 83.7117 51.7914 84.3814L52.4322 87.3446C52.5128 87.7188 52.359 88.0967 52.0697 88.3137ZM50.7807 84.6059C50.7551 84.4862 50.6306 84.4038 50.5134 84.4338L49.8909 84.576C49.7737 84.6021 49.6931 84.7294 49.7224 84.8491L50.5024 88.4484C50.528 88.5606 50.6489 88.6392 50.766 88.613L51.6046 88.4222L50.7807 84.6059Z" fill="white"/>
<path d="M55.0472 82.5147L55.6405 82.4099C55.7576 82.3875 55.8712 82.4773 55.8895 82.597L56.6987 87.3262C56.8013 87.9323 56.3948 88.5235 55.8016 88.6282L54.8678 88.7929C54.2745 88.8976 53.696 88.4823 53.5934 87.8762L52.7841 83.147C52.7622 83.0273 52.8391 82.9038 52.9563 82.8851L53.5495 82.7803C53.6667 82.7579 53.7802 82.8477 53.7985 82.9674L54.5895 87.5918C54.6114 87.7116 54.7286 87.7901 54.8458 87.7677L55.472 87.6555C55.5892 87.633 55.6771 87.5208 55.6551 87.401L54.8641 82.7766C54.8531 82.6569 54.93 82.5334 55.0472 82.5147Z" fill="white"/>
<path d="M60.7541 86.8922L60.853 87.6592C60.8676 87.7827 60.787 87.8911 60.6662 87.9061L60.0583 87.9884C59.9485 88.0034 59.8423 87.9211 59.824 87.7976L59.7214 87.0045L58.5789 87.1579L58.6815 87.951C58.6961 88.0745 58.6155 88.183 58.4947 88.1979L57.8978 88.2802C57.777 88.2952 57.6708 88.2129 57.6561 88.0894L57.5573 87.3225C57.5536 87.2888 57.5499 87.2626 57.5499 87.2065L57.6634 82.2942C57.6671 82.1782 57.7513 82.0884 57.8612 82.0735L59.1429 81.9014C59.2527 81.8864 59.3516 81.9724 59.3809 82.066L60.7285 86.7837C60.7431 86.8324 60.7468 86.8586 60.7541 86.8922ZM59.4761 86.0355L58.6265 83.0163L58.5716 86.1552L59.4761 86.0355Z" fill="white"/>
<path d="M62.1432 81.7811L62.6046 86.6934L63.8058 86.5736C63.9266 86.5624 64.0291 86.6485 64.0401 86.7719L64.0914 87.3331C64.1024 87.4566 64.0181 87.5614 63.8973 87.5726L61.8833 87.7709C61.7624 87.7821 61.6599 87.696 61.6489 87.5726L61.1142 81.8821C61.1033 81.7586 61.1875 81.6539 61.3083 81.6426L61.9089 81.5828C62.0297 81.5715 62.1323 81.6576 62.1432 81.7811Z" fill="white"/>
<path d="M65.7102 87.4379L65.1097 87.4828C64.9888 87.4903 64.8899 87.4005 64.8789 87.2771L64.4871 81.5829C64.4798 81.4594 64.5677 81.3472 64.6849 81.3397L65.2854 81.2948C65.4063 81.2874 65.5088 81.3846 65.5161 81.5081L65.9079 87.2023C65.9189 87.3257 65.8311 87.4305 65.7102 87.4379Z" fill="white"/>
<path d="M69.3835 81.3052L69.4091 81.8851C69.4128 82.0085 69.3139 82.1096 69.2041 82.1133L68.4643 82.147L68.6731 87.0594C68.6767 87.1829 68.5889 87.2839 68.468 87.2876L67.8675 87.3138C67.7539 87.3176 67.6477 87.2278 67.6441 87.1043L67.4354 82.1919L66.703 82.2255C66.5821 82.2293 66.4833 82.1395 66.4796 82.016L66.454 81.4361C66.4503 81.3126 66.5382 81.2116 66.659 81.2079L69.1638 81.0956C69.27 81.0882 69.3762 81.1817 69.3835 81.3052Z" fill="white"/>
<path d="M72.6622 81.0409L73.2664 81.0334C73.3873 81.0334 73.4825 81.127 73.4825 81.2504L73.4898 82.1221C73.4898 82.2193 73.4752 82.3166 73.4312 82.4027L72.3583 84.7071L72.3803 86.9742C72.3803 87.0976 72.2887 87.1949 72.1679 87.1949L71.5637 87.2024C71.4428 87.2024 71.3476 87.1088 71.3476 86.9854L71.3256 84.7183L70.2014 82.4326C70.1648 82.3465 70.1392 82.2493 70.1392 82.152L70.1318 81.2804C70.1318 81.1569 70.2234 81.0596 70.3442 81.0596L70.9485 81.0522C71.0693 81.0522 71.1645 81.1457 71.1645 81.2691L71.1718 81.9388C71.1718 82.0099 71.1901 82.0809 71.2268 82.1408L71.831 83.3828L72.4132 82.1296C72.4389 82.0697 72.4535 81.9986 72.4535 81.9276L72.4462 81.2579C72.4498 81.1419 72.5414 81.0447 72.6622 81.0409Z" fill="white"/>
<path d="M78.9574 84.2996C78.9281 84.9769 78.3679 85.497 77.7051 85.4633C77.0496 85.4334 76.5332 84.8609 76.5662 84.1836C76.5955 83.5138 77.1631 82.9862 77.8186 83.0198C78.4814 83.0535 78.9867 83.6335 78.9574 84.2996Z" fill="white"/>
<path d="M85.3644 85.5114L85.2582 86.544C85.1813 87.3147 84.5075 87.8796 83.7531 87.7973L82.1272 87.6252C82.0064 87.614 81.9222 87.5055 81.9368 87.382L82.5191 81.6992C82.53 81.5757 82.6363 81.4897 82.7571 81.5046L84.2475 81.6618C85.0018 81.7403 85.5438 82.4362 85.4669 83.2069L85.4083 83.7755C85.379 84.0636 85.2765 84.318 85.097 84.52C85.3021 84.8006 85.4046 85.1448 85.3644 85.5114ZM84.3427 85.3506C84.361 85.1598 84.2255 84.9839 84.0461 84.9652L83.2331 84.8792L83.0464 86.6974L83.8593 86.7834C84.0388 86.8021 84.2109 86.66 84.2292 86.4617L84.3427 85.3506ZM83.332 83.8915L84.0095 83.9626C84.1889 83.9813 84.361 83.8391 84.3793 83.6558L84.4416 83.0535C84.4599 82.8627 84.3244 82.6868 84.1449 82.6681L83.4675 82.5971L83.332 83.8915Z" fill="white"/>
<path d="M87.7433 83.1133L87.5602 84.4116L88.3108 84.5201C88.4317 84.5388 88.5122 84.6473 88.4939 84.767L88.417 85.3058C88.3987 85.4293 88.2925 85.5116 88.1754 85.4929L87.4247 85.3844L87.1683 87.2214L88.3511 87.3936C88.472 87.4123 88.5525 87.5208 88.5342 87.6405L88.4573 88.198C88.439 88.3215 88.3328 88.4038 88.212 88.3851L86.2089 88.0932C86.0881 88.0745 86.0112 87.966 86.0258 87.8463L86.8168 82.1891C86.8351 82.0657 86.9413 81.9871 87.0621 82.0021L89.0652 82.2939C89.186 82.3126 89.2629 82.4211 89.2483 82.5408L89.1714 83.0983C89.1531 83.2218 89.0469 83.3004 88.926 83.2854L87.7433 83.1133Z" fill="white"/>
<path d="M92.115 84.4079L92.1479 84.2245C92.1809 84.0337 92.0564 83.8579 91.8696 83.8242L91.4815 83.7532C91.2947 83.7195 91.1153 83.8355 91.0823 84.0263L90.9871 84.5538C90.9541 84.7446 91.0787 84.9204 91.2654 84.9616L91.6536 85.0326C92.4079 85.1748 92.8986 85.9006 92.7595 86.6675L92.569 87.73C92.4335 88.4932 91.7122 89.002 90.9688 88.8636L90.5806 88.7925C89.8373 88.6541 89.3356 87.9171 89.4711 87.1576L89.5993 86.4468C89.6212 86.3271 89.7311 86.2485 89.8483 86.271L90.4415 86.3832C90.5587 86.4057 90.6356 86.5179 90.6136 86.6376L90.4781 87.3896C90.4451 87.5804 90.5696 87.7637 90.7564 87.7974L91.1446 87.8685C91.3313 87.9021 91.5108 87.7749 91.5437 87.5841L91.7451 86.458C91.7781 86.2672 91.6536 86.0914 91.4668 86.0577L91.0786 85.9866C90.3353 85.8407 89.8336 85.1187 89.9691 84.3592L90.057 83.8654C90.1925 83.1059 90.9139 82.5934 91.6572 82.7318L92.0454 82.8029C92.7997 82.9413 93.2904 83.6783 93.1513 84.4378L93.1256 84.5837C93.1037 84.7034 92.9938 84.782 92.8766 84.7595L92.2834 84.6473C92.1699 84.6436 92.093 84.5313 92.115 84.4079Z" fill="white"/>
<path d="M97.1195 84.127L96.995 84.692C96.9694 84.8117 96.8485 84.8828 96.7387 84.8566L96.0173 84.692L94.9627 89.4883C94.937 89.608 94.8235 89.6828 94.7064 89.6529L94.1168 89.5182C94.0069 89.492 93.9264 89.376 93.9557 89.2563L95.0103 84.46L94.2962 84.2954C94.179 84.2692 94.1058 84.1532 94.1351 84.0335L94.2596 83.4686C94.2852 83.3489 94.3987 83.274 94.5159 83.304L96.9584 83.8652C97.0646 83.8913 97.1451 84.0073 97.1195 84.127Z" fill="white"/>
<path d="M102.97 87.0267L102.813 87.5655C102.597 88.3063 101.824 88.7328 101.107 88.5121L100.473 88.3175L99.7553 90.7682C99.7223 90.8879 99.6015 90.9515 99.488 90.9178L98.9094 90.742C98.7922 90.7083 98.73 90.5848 98.7666 90.4688L100.367 84.9913C100.4 84.8754 100.521 84.808 100.634 84.8417L102.051 85.2757C102.769 85.4964 103.187 86.2859 102.97 87.0267ZM101.993 86.6825C102.048 86.4954 101.952 86.3046 101.769 86.2485L101.136 86.0539L100.773 87.2998L101.407 87.4944C101.59 87.5505 101.773 87.442 101.824 87.2624L101.993 86.6825Z" fill="white"/>
<path d="M105.418 89.87L105.667 91.5274C105.678 91.6246 105.66 91.7294 105.631 91.8229L105.345 92.6535C105.305 92.7694 105.191 92.8331 105.078 92.7919L104.51 92.5861C104.397 92.545 104.331 92.4178 104.371 92.3018L104.573 91.7219C104.605 91.6321 104.62 91.5349 104.613 91.4189L104.313 89.4622L103.445 91.9763C103.404 92.0923 103.284 92.1522 103.17 92.111L102.602 91.9052C102.496 91.8678 102.43 91.7406 102.471 91.6246L104.334 86.2336C104.375 86.1176 104.503 86.0615 104.609 86.0989L106.015 86.604C106.729 86.8621 107.099 87.6665 106.847 88.396L106.667 88.9198C106.466 89.4809 105.96 89.8401 105.418 89.87ZM105.678 87.558L105.045 87.3298L104.616 88.5644L105.25 88.7926C105.422 88.8524 105.62 88.7589 105.686 88.5681L105.883 87.9957C105.949 87.8124 105.851 87.6178 105.678 87.558Z" fill="white"/>
<path d="M106.805 93.4956L106.245 93.2674C106.132 93.2225 106.08 93.0953 106.124 92.9831L108.197 87.6815C108.241 87.5656 108.369 87.5057 108.479 87.5506L109.039 87.7788C109.153 87.8237 109.2 87.9584 109.156 88.0744L107.084 93.3759C107.04 93.4882 106.919 93.5443 106.805 93.4956Z" fill="white"/>
<path d="M111.096 92.2871L111.646 92.5415C111.756 92.5938 111.8 92.7285 111.748 92.8408L111.148 94.2026C110.899 94.7638 110.247 95.022 109.69 94.7675L108.826 94.371C108.277 94.1166 108.028 93.4431 108.273 92.8819L109.844 89.3239C110.097 88.7552 110.745 88.5046 111.302 88.759L112.166 89.1556C112.722 89.4137 112.968 90.0759 112.719 90.6446L112.331 91.5276C112.283 91.6398 112.151 91.6959 112.041 91.6473L111.492 91.3929C111.382 91.3405 111.338 91.2058 111.389 91.0936L111.741 90.3004C111.789 90.1882 111.734 90.0572 111.635 90.0086L111.045 89.7392C110.935 89.6868 110.804 89.7317 110.752 89.844L109.269 93.2112C109.222 93.3234 109.276 93.4543 109.386 93.5067L109.976 93.7761C110.078 93.8247 110.21 93.7798 110.262 93.6676L110.818 92.4105C110.858 92.2945 110.987 92.2384 111.096 92.2871Z" fill="white"/>
<path d="M114.729 91.5464L114.136 92.7099L114.806 93.0691C114.912 93.1252 114.952 93.2562 114.897 93.3647L114.648 93.8473C114.593 93.9558 114.465 93.997 114.359 93.9408L113.689 93.5817L112.847 95.2279L113.909 95.7928C114.015 95.8489 114.055 95.9799 114 96.0884L113.744 96.586C113.689 96.6945 113.561 96.7356 113.455 96.6795L111.66 95.7217C111.554 95.6656 111.514 95.5347 111.569 95.4262L114.161 90.3566C114.216 90.2481 114.344 90.207 114.451 90.2631L116.245 91.2209C116.351 91.277 116.391 91.4079 116.336 91.5164L116.08 92.014C116.025 92.1225 115.897 92.1637 115.791 92.1076L114.729 91.5464Z" fill="white"/>
<path d="M117.922 95.7852C117.582 96.3652 116.849 96.556 116.282 96.208C115.722 95.8638 115.528 95.1117 115.868 94.5317C116.205 93.9592 116.948 93.7684 117.509 94.1089C118.08 94.4569 118.259 95.2127 117.922 95.7852Z" fill="white"/>
<path d="M75.3553 34.8174C75.3553 38.2443 72.6346 41.0241 69.2803 41.0241C65.926 41.0241 63.2052 38.2443 63.2052 34.8174C63.2052 31.3904 69.2803 22.0859 69.2803 22.0859C69.2803 22.0859 75.3553 31.3904 75.3553 34.8174Z" fill="#767676"/>
<path d="M56.4788 43.3064C54.1351 43.3064 52.2273 41.3572 52.2273 38.9628C52.2273 36.7741 55.6182 31.5176 56.0064 30.9265L56.4824 30.2007L56.9585 30.9265C57.3466 31.5176 60.7375 36.7741 60.7375 38.9628C60.7302 41.3572 58.8224 43.3064 56.4788 43.3064ZM56.4788 32.3183C55.3106 34.2001 53.3661 37.6122 53.3661 38.9628C53.3661 40.7137 54.7613 42.1429 56.4788 42.1429C58.1925 42.1429 59.5914 40.7174 59.5914 38.9628C59.5914 37.6122 57.6469 34.1964 56.4788 32.3183Z" fill="#767676"/>
<path d="M83.4439 42.5542C81.1003 42.5542 79.1925 40.605 79.1925 38.2106C79.1925 36.0219 82.5834 30.7654 82.9715 30.1743L83.4476 29.4485L83.9236 30.1743C84.3118 30.7654 87.7027 36.0219 87.7027 38.2106C87.6954 40.605 85.7875 42.5542 83.4439 42.5542ZM83.4439 31.5661C82.2758 33.4479 80.3313 36.86 80.3313 38.2106C80.3313 39.9652 81.7265 41.3907 83.4439 41.3907C85.1577 41.3907 86.5565 39.9652 86.5565 38.2106C86.5565 36.86 84.6121 33.4479 83.4439 31.5661Z" fill="#767676"/>
</g>
<defs>
<clipPath id="clip0_10_1591">
<rect width="140" height="140" fill="white"/>
</clipPath>
</defs>
</svg>
