<svg>

    <!--    Social icons-->
    <symbol fill="none" xmlns="http://www.w3.org/2000/svg" viewBox="0 0 14 14" id="dribbble">
        <g clip-path="url(#clip0_1_91)">
            <path d="M11.6602 6.75017C11.6124 5.83195 11.293 4.94861 10.7426 4.21209C10.5749 4.3927 10.3957 4.56223 10.206 4.71959C9.62317 5.20366 8.97191 5.59878 8.27338 5.89209C8.37079 6.09625 8.46004 6.294 8.53879 6.48067V6.48242C8.56101 6.53458 8.58241 6.58709 8.60296 6.63992C9.48613 6.54075 10.4171 6.57692 11.3195 6.69884C11.4397 6.71517 11.5529 6.73267 11.6602 6.75017ZM6.18563 2.40434C6.75411 3.20535 7.27833 4.03688 7.75596 4.89517C8.46938 4.614 9.05913 4.25934 9.53396 3.86442C9.69878 3.72858 9.85394 3.58142 9.99829 3.424C9.15886 2.71801 8.09681 2.33161 6.99996 2.33317C6.72698 2.33298 6.4545 2.3566 6.18563 2.40375V2.40434ZM2.48088 5.83142C2.87826 5.82139 3.27517 5.79746 3.67088 5.75967C4.62733 5.67412 5.57562 5.5138 6.50704 5.28017C6.02026 4.43446 5.4947 3.61167 4.93204 2.81442C4.33105 3.11215 3.80111 3.53566 3.37819 4.05621C2.95526 4.57677 2.64924 5.18219 2.48088 5.83142ZM3.37338 9.93692C3.59971 9.60617 3.89721 9.234 4.29213 8.82917C5.14029 7.96 6.14129 7.28334 7.29979 6.91L7.33596 6.8995C7.23971 6.68717 7.14929 6.49759 7.05829 6.31909C5.98729 6.63117 4.85913 6.826 3.73504 6.92692C3.18671 6.9765 2.69496 6.99809 2.33329 7.00159C2.33226 8.0706 2.6998 9.10729 3.37396 9.93692H3.37338ZM8.75288 11.3253C8.52792 10.1908 8.20951 9.07694 7.80088 7.995C6.63304 8.41909 5.70263 9.03917 4.98338 9.77884C4.69311 10.0719 4.43552 10.3956 4.21513 10.7443C5.01943 11.3444 5.99644 11.6679 6.99996 11.6665C7.60074 11.6674 8.196 11.5519 8.75288 11.3264V11.3253ZM9.84546 10.6982C10.7562 9.99803 11.3766 8.9865 11.5879 7.85734C11.3895 7.80775 11.1381 7.75817 10.8616 7.71967C10.2469 7.63115 9.62308 7.62467 9.00663 7.70042C9.35374 8.67974 9.634 9.68148 9.84546 10.6988V10.6982ZM6.99996 12.8332C3.77821 12.8332 1.16663 10.2216 1.16663 6.99984C1.16663 3.77809 3.77821 1.1665 6.99996 1.1665C10.2217 1.1665 12.8333 3.77809 12.8333 6.99984C12.8333 10.2216 10.2217 12.8332 6.99996 12.8332Z" fill="#2B2B2B"></path>
        </g>
        <defs>
            <clipPath id="clip0_1_91">
                <rect width="14" height="14" fill="white"></rect>
            </clipPath>
        </defs>
    </symbol>
    <symbol fill="none" xmlns="http://www.w3.org/2000/svg" viewBox="0 0 14 14" id="facebook">
        <g clip-path="url(#clip0_1_58)">
            <path d="M8.16671 7.87484H9.62504L10.2084 5.5415H8.16671V4.37484C8.16671 3.774 8.16671 3.20817 9.33337 3.20817H10.2084V1.24817C10.0182 1.22309 9.30012 1.1665 8.54179 1.1665C6.95804 1.1665 5.83337 2.13309 5.83337 3.90817V5.5415H4.08337V7.87484H5.83337V12.8332H8.16671V7.87484Z" fill="#2B2B2B"></path>
        </g>
        <defs>
            <clipPath id="clip0_1_58">
                <rect width="14" height="14" fill="white"></rect>
            </clipPath>
        </defs>
    </symbol>
    <symbol fill="none" xmlns="http://www.w3.org/2000/svg" viewBox="0 0 14 14" id="instagram">
        <g clip-path="url(#clip0_1_63)">
            <path d="M6.99996 1.1665C8.58488 1.1665 8.78263 1.17234 9.40446 1.2015C10.0257 1.23067 10.4486 1.32809 10.8208 1.47275C11.2058 1.62092 11.5301 1.82159 11.8545 2.14534C12.1511 2.43694 12.3806 2.78968 12.527 3.179C12.6711 3.55059 12.7691 3.97409 12.7983 4.59534C12.8257 5.21717 12.8333 5.41492 12.8333 6.99984C12.8333 8.58475 12.8275 8.7825 12.7983 9.40434C12.7691 10.0256 12.6711 10.4485 12.527 10.8207C12.381 11.2102 12.1514 11.563 11.8545 11.8543C11.5628 12.1509 11.2101 12.3804 10.8208 12.5269C10.4492 12.671 10.0257 12.769 9.40446 12.7982C8.78263 12.8256 8.58488 12.8332 6.99996 12.8332C5.41504 12.8332 5.21729 12.8273 4.59546 12.7982C3.97421 12.769 3.55129 12.671 3.17913 12.5269C2.78965 12.3808 2.43685 12.1512 2.14546 11.8543C1.84878 11.5628 1.61925 11.21 1.47288 10.8207C1.32821 10.4491 1.23079 10.0256 1.20163 9.40434C1.17421 8.7825 1.16663 8.58475 1.16663 6.99984C1.16663 5.41492 1.17246 5.21717 1.20163 4.59534C1.23079 3.9735 1.32821 3.55117 1.47288 3.179C1.61885 2.78944 1.84843 2.43661 2.14546 2.14534C2.43693 1.84856 2.78971 1.61901 3.17913 1.47275C3.55129 1.32809 3.97363 1.23067 4.59546 1.2015C5.21729 1.17409 5.41504 1.1665 6.99996 1.1665ZM6.99996 4.08317C6.22641 4.08317 5.48455 4.39046 4.93756 4.93744C4.39058 5.48442 4.08329 6.22629 4.08329 6.99984C4.08329 7.77339 4.39058 8.51525 4.93756 9.06223C5.48455 9.60921 6.22641 9.9165 6.99996 9.9165C7.77351 9.9165 8.51537 9.60921 9.06235 9.06223C9.60934 8.51525 9.91663 7.77339 9.91663 6.99984C9.91663 6.22629 9.60934 5.48442 9.06235 4.93744C8.51537 4.39046 7.77351 4.08317 6.99996 4.08317ZM10.7916 3.93734C10.7916 3.74395 10.7148 3.55848 10.5781 3.42174C10.4413 3.28499 10.2558 3.20817 10.0625 3.20817C9.86907 3.20817 9.68361 3.28499 9.54686 3.42174C9.41012 3.55848 9.33329 3.74395 9.33329 3.93734C9.33329 4.13072 9.41012 4.31619 9.54686 4.45294C9.68361 4.58968 9.86907 4.6665 10.0625 4.6665C10.2558 4.6665 10.4413 4.58968 10.5781 4.45294C10.7148 4.31619 10.7916 4.13072 10.7916 3.93734ZM6.99996 5.24984C7.46409 5.24984 7.90921 5.43421 8.2374 5.7624C8.56559 6.09059 8.74996 6.53571 8.74996 6.99984C8.74996 7.46397 8.56559 7.90909 8.2374 8.23727C7.90921 8.56546 7.46409 8.74984 6.99996 8.74984C6.53583 8.74984 6.09071 8.56546 5.76252 8.23727C5.43433 7.90909 5.24996 7.46397 5.24996 6.99984C5.24996 6.53571 5.43433 6.09059 5.76252 5.7624C6.09071 5.43421 6.53583 5.24984 6.99996 5.24984Z" fill="#2B2B2B"></path>
        </g>
        <defs>
            <clipPath id="clip0_1_63">
                <rect width="14" height="14" fill="white"></rect>
            </clipPath>
        </defs>
    </symbol>
    <symbol fill="none" xmlns="http://www.w3.org/2000/svg" viewBox="0 0 14 14" id="linkedin">
        <g clip-path="url(#clip0_1_77)">
            <path d="M4.0483 2.91676C4.04814 3.22618 3.92508 3.52287 3.70618 3.74155C3.48728 3.96023 3.19047 4.083 2.88105 4.08285C2.57163 4.08269 2.27495 3.95963 2.05626 3.74072C1.83758 3.52182 1.71481 3.22501 1.71497 2.9156C1.71512 2.60618 1.83819 2.30949 2.05709 2.09081C2.27599 1.87213 2.5728 1.74936 2.88222 1.74951C3.19164 1.74967 3.48832 1.87273 3.707 2.09163C3.92569 2.31053 4.04845 2.60734 4.0483 2.91676ZM4.0833 4.94676H1.74997V12.2501H4.0833V4.94676ZM7.76997 4.94676H5.4483V12.2501H7.74663V8.4176C7.74663 6.2826 10.5291 6.08426 10.5291 8.4176V12.2501H12.8333V7.62426C12.8333 4.0251 8.71497 4.15926 7.74663 5.92676L7.76997 4.94676Z" fill="#2B2B2B"></path>
        </g>
        <defs>
            <clipPath id="clip0_1_77">
                <rect width="14" height="14" fill="white"></rect>
            </clipPath>
        </defs>
    </symbol>
    <symbol fill="none" xmlns="http://www.w3.org/2000/svg" viewBox="0 0 14 14" id="twitter">
        <g clip-path="url(#clip0_1_70)">
            <path d="M12.9278 3.29953C12.4825 3.49652 12.0102 3.62589 11.5266 3.68337C12.0363 3.37854 12.4178 2.89879 12.6 2.33353C12.1216 2.6182 11.5972 2.8177 11.0506 2.92562C10.6835 2.53279 10.1968 2.27226 9.66636 2.18454C9.13587 2.09682 8.59127 2.18682 8.11721 2.44055C7.64315 2.69428 7.2662 3.09752 7.04495 3.58758C6.82371 4.07764 6.77057 4.62707 6.8938 5.15045C5.92378 5.10183 4.97483 4.84976 4.10855 4.41059C3.24228 3.97142 2.47804 3.35498 1.86547 2.60128C1.64864 2.97371 1.53469 3.39708 1.5353 3.82803C1.5353 4.67387 1.9658 5.42112 2.6203 5.85862C2.23298 5.84642 1.85417 5.74182 1.51547 5.55354V5.58387C1.51559 6.14719 1.71052 6.69314 2.06721 7.12915C2.42391 7.56516 2.92042 7.8644 3.47255 7.97612C3.113 8.07356 2.73598 8.08792 2.37005 8.01812C2.52573 8.503 2.82914 8.92707 3.23782 9.23093C3.64649 9.5348 4.13996 9.70325 4.64914 9.7127C4.14308 10.1101 3.56366 10.4039 2.94398 10.5773C2.32431 10.7507 1.67654 10.8002 1.03772 10.723C2.15288 11.4402 3.45103 11.8209 4.77689 11.8197C9.26447 11.8197 11.7186 8.10212 11.7186 4.87804C11.7186 4.77304 11.7156 4.66687 11.711 4.56303C12.1886 4.2178 12.6009 3.79013 12.9284 3.30012L12.9278 3.29953Z" fill="#2B2B2B"></path>
        </g>
        <defs>
            <clipPath id="clip0_1_70">
                <rect width="14" height="14" fill="white"></rect>
            </clipPath>
        </defs>
    </symbol>
    <symbol fill="none" xmlns="http://www.w3.org/2000/svg" viewBox="0 0 14 14" id="youtube">
        <g clip-path="url(#clip0_1_84)">
            <path d="M12.5667 3.79066C12.8333 4.83016 12.8333 7.00016 12.8333 7.00016C12.8333 7.00016 12.8333 9.17016 12.5667 10.2097C12.4185 10.7842 11.9851 11.2363 11.4362 11.3892C10.4393 11.6668 6.99996 11.6668 6.99996 11.6668C6.99996 11.6668 3.56238 11.6668 2.56371 11.3892C2.01246 11.234 1.57963 10.7825 1.43321 10.2097C1.16663 9.17016 1.16663 7.00016 1.16663 7.00016C1.16663 7.00016 1.16663 4.83016 1.43321 3.79066C1.58138 3.21608 2.01479 2.764 2.56371 2.61116C3.56238 2.3335 6.99996 2.3335 6.99996 2.3335C6.99996 2.3335 10.4393 2.3335 11.4362 2.61116C11.9875 2.76633 12.4203 3.21783 12.5667 3.79066ZM5.83329 9.04183L9.33329 7.00016L5.83329 4.9585V9.04183Z" fill="#2B2B2B"></path>
        </g>
        <defs>
            <clipPath id="clip0_1_84">
                <rect width="14" height="14" fill="white"></rect>
            </clipPath>
        </defs>
    </symbol>
    <!--    Social icons-->

    <!--    Copy icon-->
    <symbol fill="none" xmlns="http://www.w3.org/2000/svg" viewBox="0 0 15 15" id="copyBtn">
        <rect x="0.5" y="0.5" width="9" height="9" stroke="#FFB400"></rect>
        <rect x="5.5" y="5.5" width="9" height="9" stroke="#FFB400"></rect>
        <rect x="0.5" y="0.5" width="9" height="9" stroke="#FFB400"></rect>
        <rect x="5.5" y="5.5" width="9" height="9" stroke="#FFB400"></rect>
    </symbol>
    <!--    Copy icon-->

    <!--    Download icon-->
    <symbol fill="none" xmlns="http://www.w3.org/2000/svg" viewBox="0 0 14 17" id="downloadBtn">
        <g clip-path="url(#clip0_1_226)">
            <path d="M2.33329 12.9523H11.6666V8.28564H12.8333V13.619C12.8333 13.7958 12.7718 13.9654 12.6624 14.0904C12.553 14.2154 12.4047 14.2856 12.25 14.2856H1.74996C1.59525 14.2856 1.44688 14.2154 1.33748 14.0904C1.22808 13.9654 1.16663 13.7958 1.16663 13.619V8.28564H2.33329V12.9523ZM8.16663 6.28564H11.0833L6.99996 10.9523L2.91663 6.28564H5.83329V2.28564H8.16663V6.28564Z" fill="#2B2B2B"></path>
        </g>
        <defs>
            <clipPath id="clip0_1_226">
                <rect width="14" height="16" fill="white" transform="translate(0 0.285645)"></rect>
            </clipPath>
        </defs>
    </symbol>
    <!--    Download icon-->

    <!--    Services icon-->
    <symbol fill="none" xmlns="http://www.w3.org/2000/svg" viewBox="0 0 74 74" id="servicesGame">
        <path d="M32.375 38.1562H41.625V40.4688H32.375V38.1562Z" fill="#FFB400"></path>
        <path d="M35.8438 34.6875H38.1562V43.9375H35.8438V34.6875Z" fill="#FFB400"></path>
        <path d="M65.9062 38.1562H68.2188V40.4688H65.9062V38.1562Z" fill="#FFB400"></path>
        <path d="M56.6562 38.1562H58.9688V40.4688H56.6562V38.1562Z" fill="#FFB400"></path>
        <path d="M61.2812 33.5312H63.5938V35.8438H61.2812V33.5312Z" fill="#FFB400"></path>
        <path d="M61.2812 42.7812H63.5938V45.0938H61.2812V42.7812Z" fill="#FFB400"></path>
        <path d="M10.6598 20.3789L5.45667 13.875L10.6598 7.37109L12.4653 8.81641L8.41843 13.875L12.4653 18.9336L10.6598 20.3789Z" fill="#FFB400"></path>
        <path d="M28.6528 20.3789L26.8473 18.9336L30.8953 13.875L26.8473 8.81641L28.6528 7.37109L33.8548 13.875L28.6528 20.3789Z" fill="#FFB400"></path>
        <path d="M14.7377 17.7375L22.8337 8.48975L24.5737 10.0124L16.4777 19.2607L14.7377 17.7375Z" fill="#FFB400"></path>
        <path d="M9.25 50.875H4.625V46.25H6.9375V48.5625H9.25V50.875Z" fill="#FFB400"></path>
        <path d="M70.5312 2.3125H3.46875C1.55315 2.3125 0 3.86565 0 5.78125V52.0312C0 53.9469 1.55315 55.5 3.46875 55.5H27.75V61.2812C27.75 63.1969 26.1969 64.75 24.2812 64.75H18.5V71.6875H55.5V64.75H49.7188C47.8031 64.75 46.25 63.1969 46.25 61.2812V55.5H70.5312C72.4469 55.5 74 53.9469 74 52.0312V5.78125C74 3.86565 72.4469 2.3125 70.5312 2.3125ZM53.1875 67.0625V69.375H20.8125V67.0625H53.1875ZM37 62.4861C38.9156 62.4861 40.4688 60.9329 40.4688 59.0173V55.5H43.9375V61.2812C43.942 62.5363 44.3587 63.7552 45.1237 64.75H28.8763C29.6413 63.7552 30.058 62.5363 30.0625 61.2812V55.5H33.5312V59.0173C33.5312 60.9329 35.0844 62.4861 37 62.4861ZM35.8438 59.0173V55.5H38.1562V59.0173C38.1562 59.6558 37.6385 60.1736 37 60.1736C36.3615 60.1736 35.8438 59.6558 35.8438 59.0173ZM71.6875 52.0312C71.6875 52.6698 71.1698 53.1875 70.5312 53.1875H3.46875C2.83022 53.1875 2.3125 52.6698 2.3125 52.0312V41.625H25.669C26.6265 46.3319 30.3956 49.9553 35.1369 50.726C39.8776 51.4972 44.6009 49.2547 47.0003 45.0938H52.4349C54.3725 48.4626 57.8774 50.6288 61.7572 50.8558C65.6369 51.0828 69.3699 49.3399 71.6875 46.2201V52.0312ZM62.4375 48.5625C58.923 48.571 55.7112 46.5758 54.1608 43.422L53.8407 42.7812H45.5968L45.2767 43.422C43.2487 47.5107 38.5419 49.5099 34.1918 48.1295C29.8412 46.7485 27.1482 42.4019 27.8494 37.8915C28.55 33.3816 32.436 30.0574 37 30.0625H62.4375C67.5463 30.0625 71.6875 34.2037 71.6875 39.3125C71.6875 44.4213 67.5463 48.5625 62.4375 48.5625ZM71.6875 32.4049C69.5128 29.4793 66.083 27.7534 62.4375 27.75H37C30.6169 27.7568 25.4443 32.9294 25.4375 39.3125H2.3125V5.78125C2.3125 5.14272 2.83022 4.625 3.46875 4.625H70.5312C71.1698 4.625 71.6875 5.14272 71.6875 5.78125V32.4049Z" fill="#FFB400"></path>
        <path d="M47.4062 38.1562H52.0312V40.4688H47.4062V38.1562Z" fill="#FFB400"></path>
        <path d="M34.6875 9.25H43.9375V11.5625H34.6875V9.25Z" fill="#FFB400"></path>
        <path d="M48.5625 9.25H67.0625V11.5625H48.5625V9.25Z" fill="#FFB400"></path>
        <path d="M50.875 13.875H67.0625V16.1875H50.875V13.875Z" fill="#FFB400"></path>
        <path d="M37 13.875H46.25V16.1875H37V13.875Z" fill="#FFB400"></path>
        <path d="M34.6875 18.5H57.8125V20.8125H34.6875V18.5Z" fill="#FFB400"></path>
        <path d="M62.4375 18.5H67.0625V20.8125H62.4375V18.5Z" fill="#FFB400"></path>
        <path d="M6.9375 23.125H18.5V25.4375H6.9375V23.125Z" fill="#FFB400"></path>
        <path d="M23.125 23.125H45.0938V25.4375H23.125V23.125Z" fill="#FFB400"></path>
        <path d="M48.5625 23.125H67.0625V25.4375H48.5625V23.125Z" fill="#FFB400"></path>
        <path d="M6.9375 27.75H25.4375V30.0625H6.9375V27.75Z" fill="#FFB400"></path>
        <path d="M6.9375 32.375H16.1875V34.6875H6.9375V32.375Z" fill="#FFB400"></path>
        <path d="M18.5 32.375H23.125V34.6875H18.5V32.375Z" fill="#FFB400"></path>
    </symbol>
    <symbol fill="none" xmlns="http://www.w3.org/2000/svg" viewBox="0 0 74 68" id="servicesAdver">
        <path d="M47.7894 7.31303C48.3873 7.31303 48.8719 6.82836 48.8719 6.23049C48.8719 5.63262 48.3873 5.14795 47.7894 5.14795C47.1915 5.14795 46.7068 5.63262 46.7068 6.23049C46.7068 6.82836 47.1915 7.31303 47.7894 7.31303Z" fill="#FFB400"></path>
        <path d="M52.4415 7.31303C53.0394 7.31303 53.5241 6.82836 53.5241 6.23049C53.5241 5.63262 53.0394 5.14795 52.4415 5.14795C51.8437 5.14795 51.359 5.63262 51.359 6.23049C51.359 6.82836 51.8437 7.31303 52.4415 7.31303Z" fill="#FFB400"></path>
        <path d="M20.4759 7.31445H39.9569C40.5556 7.31445 41.0409 6.82912 41.0409 6.23047C41.0409 5.63182 40.5556 5.14648 39.9569 5.14648H20.4759C19.8772 5.14648 19.3919 5.63182 19.3919 6.23047C19.3919 6.82912 19.8772 7.31445 20.4759 7.31445Z" fill="#FFB400"></path>
        <path d="M71.1202 56.3696H69.2178V49.2685C69.2178 48.6698 68.7324 48.1845 68.1338 48.1845C67.5351 48.1845 67.0498 48.6698 67.0498 49.2685V56.3696C62.404 56.3696 9.81729 56.3696 6.95036 56.3696V19.7627C6.95036 18.2885 8.14968 17.089 9.62405 17.089H14.7685V20.0093H11.9462C10.8017 20.0093 9.87062 20.9405 9.87062 22.085V51.3736C9.87062 52.5181 10.8017 53.4493 11.9462 53.4493H62.0536C63.1982 53.4493 64.1292 52.5181 64.1292 51.3736V22.085C64.1292 20.9405 63.1982 20.0093 62.0536 20.0093H59.2315V17.089H64.376C65.8502 17.089 67.0496 18.2883 67.0496 19.7627V44.1977C67.0496 44.7964 67.535 45.2817 68.1336 45.2817C68.7323 45.2817 69.2176 44.7964 69.2176 44.1977V19.7627C69.2176 17.0931 67.0457 14.9211 64.376 14.9211H59.2315V2.99145C59.2315 1.76582 58.2344 0.768555 57.0086 0.768555H16.9914C15.7656 0.768555 14.7685 1.76568 14.7685 2.99145V14.9211H9.6239C6.95427 14.9211 4.78225 17.0929 4.78225 19.7627V56.3697H2.87979C1.29182 56.3696 0 57.6615 0 59.2495C0 63.6509 3.58091 67.2318 7.98232 67.2318H66.0177C70.4191 67.2318 74 63.6509 74 59.2495C74 57.6614 72.7082 56.3696 71.1202 56.3696ZM12.0386 22.1772H14.7683V51.2814H12.0386V22.1772ZM61.9614 22.1772V51.2814H59.2317V22.1772H61.9614ZM16.9914 2.93667H57.0088C57.039 2.93667 57.0637 2.96124 57.0637 2.99159V9.5244H25.4164C24.8178 9.5244 24.3324 10.0097 24.3324 10.6084C24.3324 11.207 24.8178 11.6924 25.4164 11.6924H57.0637V51.2815H16.9363V11.6922H20.3487C20.9473 11.6922 21.4327 11.2069 21.4327 10.6082C21.4327 10.0096 20.9473 9.52426 20.3487 9.52426H16.9363V2.99145C16.9363 2.96124 16.961 2.93667 16.9914 2.93667ZM26.5504 58.5376H47.4496V59.627C47.4496 60.2278 46.9608 60.7166 46.36 60.7166H27.64C27.0392 60.7166 26.5504 60.2278 26.5504 59.627V58.5376ZM66.0177 65.0637H7.98232C4.77632 65.0637 2.16797 62.4554 2.16797 59.2494C2.16797 58.857 2.48724 58.5376 2.87979 58.5376H24.3824V59.627C24.3824 61.4233 25.8438 62.8846 27.64 62.8846H46.36C48.1562 62.8846 49.6176 61.4233 49.6176 59.627V58.5376H71.1202C71.5128 58.5376 71.832 58.8568 71.832 59.2494C71.832 62.4555 69.2237 65.0637 66.0177 65.0637Z" fill="#FFB400"></path>
        <path d="M22.5482 31.8115L21.7623 32.0139C20.0179 32.4633 18.9696 34.2389 19.4191 35.9836L19.9618 38.0903C20.3402 39.5592 21.6674 40.5371 23.1188 40.537C23.7424 40.537 24.0906 40.3735 24.8462 40.1979C25.3956 40.838 26.233 41.1925 27.1009 41.1093L30.9021 46.871C31.2972 47.4701 31.9621 47.8157 32.6571 47.8157C33.0878 47.8157 33.2741 47.7082 34.4117 47.4321C35.5369 47.1425 36.213 45.9972 35.9232 44.8719L34.4739 39.2464L36.0206 38.848C40.1412 37.7865 44.4812 38.8024 47.6978 41.5644L47.7113 41.6172C47.9202 42.428 48.4324 43.1089 49.1535 43.5345C49.6426 43.8233 50.188 43.971 50.7414 43.971C51.0039 43.971 51.2681 43.9378 51.5288 43.8706C52.3397 43.6617 53.0205 43.1495 53.4462 42.4284C53.8718 41.7074 53.9912 40.8637 53.7822 40.0531L48.0007 17.6126C47.7918 16.8017 47.2796 16.1209 46.5586 15.6952C45.8376 15.2697 44.994 15.1503 44.183 15.3592C43.3722 15.568 42.6913 16.0802 42.2657 16.8013C41.84 17.5224 41.7207 18.366 41.9297 19.1767L41.9432 19.2294C40.4618 23.2019 37.153 26.1886 33.0326 27.2502L24.5214 29.443C23.3957 29.7331 22.6281 30.7114 22.5482 31.8115ZM23.3908 38.3341C22.8082 38.4843 22.2115 38.1324 22.0612 37.5495L21.5185 35.4428C21.3679 34.8585 21.719 34.264 22.3033 34.1134L22.9543 33.9456L24.0417 38.1665L23.3908 38.3341ZM33.8074 45.3491L32.686 45.638L29.3416 40.5688L32.3744 39.7874L33.8074 45.3491ZM44.1326 17.9032C44.2638 17.6809 44.4738 17.523 44.7239 17.4585C44.8045 17.4377 44.8853 17.4279 44.965 17.4279C45.3954 17.4279 45.7889 17.7179 45.9012 18.1534L51.6828 40.5939C51.8157 41.11 51.504 41.6381 50.9879 41.7711C50.4719 41.9041 49.9436 41.5925 49.8107 41.0762L44.029 18.6357C43.9647 18.3857 44.0014 18.1256 44.1326 17.9032ZM42.7794 22.4745L46.8616 38.3191C41.0175 34.9137 35.4519 36.7816 35.323 36.7888L33.4168 29.3898C33.5338 29.3335 39.3021 28.2904 42.7794 22.4745ZM25.0623 31.5425L31.3173 29.931L33.2235 37.3299C31.3201 37.8203 28.2819 38.6031 26.9686 38.9415C26.5142 39.0581 26.3995 38.5979 26.3879 38.5835L24.7222 32.1186C24.6572 31.8659 24.8098 31.6075 25.0623 31.5425Z" fill="#FFB400"></path>
    </symbol>
    <symbol fill="none" xmlns="http://www.w3.org/2000/svg" viewBox="0 0 74 74" id="servicesMicrophone">
        <g clip-path="url(#clip0_1_331)">
            <path d="M37 0C29.0176 0 22.5217 6.7533 22.5217 15.0526V37C22.5217 45.3009 29.0176 52.0526 37 52.0526C44.9823 52.0526 51.4782 45.3009 51.4782 37V15.0526C51.4782 6.7533 44.9823 0 37 0ZM37 48.8352C31.3116 48.8352 26.6062 44.3743 25.8549 38.6087H48.1434C47.3938 44.3759 42.6883 48.8352 37 48.8352ZM48.2609 35.3913H25.7391V15.0526C25.7391 8.52609 30.7904 3.21739 37 3.21739C43.2095 3.21739 48.2609 8.52609 48.2609 15.0526V35.3913Z" fill="#FFB400"></path>
            <path d="M59.5217 28.9565C58.6337 28.9565 57.913 29.6772 57.913 30.5652V37C57.913 48.5312 48.5311 57.9131 37 57.9131C25.4689 57.9131 16.087 48.5312 16.087 37V30.5652C16.087 29.6772 15.3663 28.9565 14.4783 28.9565C13.5903 28.9565 12.8696 29.6772 12.8696 30.5652V37C12.8696 49.7618 22.8354 60.2151 35.3913 61.0484V70.7826H27.3478C26.4598 70.7826 25.7391 71.5033 25.7391 72.3913C25.7391 73.2793 26.4598 74 27.3478 74H46.6522C47.5402 74 48.2609 73.2793 48.2609 72.3913C48.2609 71.5033 47.5402 70.7826 46.6522 70.7826H38.6087V61.0484C51.1646 60.2151 61.1304 49.7618 61.1304 37V30.5652C61.1304 29.6772 60.4097 28.9565 59.5217 28.9565Z" fill="#FFB400"></path>
        </g>
        <defs>
            <clipPath id="clip0_1_331">
                <rect width="74" height="74" fill="white"></rect>
            </clipPath>
        </defs>
    </symbol>
    <symbol fill="none" xmlns="http://www.w3.org/2000/svg" viewBox="0 0 78 78" id="servicesPhoto">
        <path d="M55.3549 72.9677H74.7127L69.7434 58.0584C68.4438 54.1597 65.1275 51.2686 61.0879 50.5113L47.8065 48.0203V44.9469C50.9881 42.6509 53.2338 39.1535 53.8855 35.1201C56.8545 34.6182 59.1291 32.0454 59.1291 28.9355V20.129C59.1291 9.03039 50.0987 0 39 0C27.9014 0 18.871 9.03039 18.871 20.129V28.9355C18.871 32.0416 21.1343 34.6295 24.0983 35.1365C24.7525 39.1698 27.0107 42.671 30.1936 44.9657V48.0216L16.9109 50.5126C12.8725 51.2699 9.55503 54.1609 8.25545 58.0597L3.28735 72.9677H22.6452V70.4516H19.2245L21.3494 61.9496L18.9087 61.3407L16.6304 70.4516H6.77723L10.6433 58.8548C11.6535 55.8228 14.2338 53.5734 17.3752 52.9834L25.389 51.4813L27.4384 60.7004C26.0998 61.2816 25.1613 62.6126 25.1613 64.1613V74.2258C25.1613 76.3066 26.8547 78 28.9355 78H49.0646C51.1454 78 52.8388 76.3066 52.8388 74.2258V64.1613C52.8388 62.6126 51.9002 61.2816 50.5629 60.7004L52.6123 51.4813L60.6262 52.9834C63.7676 53.5734 66.3466 55.8228 67.3581 58.8548L71.2228 70.4516H61.3697L59.0913 61.3407L56.6507 61.9496L58.7756 70.4516H55.3549V72.9677ZM50.1377 51.017L48.4003 58.8346L47.531 55.3548H42.037L46.9686 50.4232L50.1377 51.017ZM46.1949 60.3871H31.8052L32.4342 57.871H45.5659L46.1949 60.3871ZM39 54.834L32.7097 48.5437V46.4226C34.627 47.3057 36.7544 47.8064 39 47.8064C41.2469 47.8064 43.3731 47.2995 45.2904 46.4163V48.5437L39 54.834ZM54.0968 32.4782V25.394C55.5574 25.9149 56.6129 27.2987 56.6129 28.9367C56.6129 30.5747 55.5574 31.9574 54.0968 32.4782ZM23.9033 32.4945C22.4389 31.975 21.3871 30.576 21.3871 28.9355C21.3871 27.295 22.4389 25.896 23.9033 25.3764V32.4945ZM21.3871 23.9359V20.129C21.3871 10.4168 29.2878 2.51613 39 2.51613C48.7123 2.51613 56.6129 10.4168 56.6129 20.129V23.9359C55.8682 23.3723 55.0077 22.9559 54.0566 22.7685C53.859 21.2827 52.5985 20.129 51.0598 20.129C50.261 20.129 49.4785 20.4536 48.8494 21.0826C46.7246 23.2075 44.0323 24.5625 41.1161 25.0028L41.1966 24.8417C41.4055 24.4215 41.5162 23.9523 41.5162 23.483V23.166C41.5162 21.4915 40.1537 20.129 38.4792 20.129C37.6803 20.129 36.8978 20.4536 36.3317 21.0185C33.6809 23.668 30.1646 25.1374 26.4194 25.1613V22.6452H25.1613C23.7397 22.6452 22.4414 23.1371 21.3871 23.9359ZM26.4194 32.7097V27.6774C30.8365 27.6535 34.9856 25.9224 38.1093 22.7986C38.4125 22.4942 39 22.742 39 23.166V23.483C39 23.5635 38.9812 23.6441 38.9447 23.717L36.9645 27.6774H39C43.3932 27.6774 47.5222 25.9677 50.69 22.7986C50.9944 22.4942 51.5807 22.742 51.5807 23.166V32.7097C51.5807 39.6466 45.937 45.2903 39 45.2903C32.0631 45.2903 26.4194 39.6466 26.4194 32.7097ZM31.0315 50.4232L35.9631 55.3548H30.4691L29.5998 58.8346L27.8624 51.017L31.0315 50.4232ZM28.9355 75.4839C28.2423 75.4839 27.6775 74.9203 27.6775 74.2258V64.1613C27.6775 63.4668 28.2423 62.9032 28.9355 62.9032H32.8494C31.2126 64.5035 30.1936 66.7303 30.1936 69.1936C30.1936 71.6568 31.2126 73.8836 32.8494 75.4839H28.9355ZM39 75.4839C35.5316 75.4839 32.7097 72.662 32.7097 69.1936C32.7097 65.7251 35.5316 62.9032 39 62.9032C42.4685 62.9032 45.2904 65.7251 45.2904 69.1936C45.2904 72.662 42.4685 75.4839 39 75.4839ZM50.3226 74.2258C50.3226 74.9203 49.7578 75.4839 49.0646 75.4839H45.1507C46.7875 73.8836 47.8065 71.6568 47.8065 69.1936C47.8065 66.7303 46.7875 64.5035 45.1507 62.9032H49.0646C49.7578 62.9032 50.3226 63.4668 50.3226 64.1613V74.2258Z" fill="#FFB400"></path>
        <path d="M39 65.4194C36.9192 65.4194 35.2258 67.1128 35.2258 69.1936C35.2258 71.2745 36.9192 72.9678 39 72.9678C41.0809 72.9678 42.7742 71.2745 42.7742 69.1936C42.7742 67.1128 41.0809 65.4194 39 65.4194ZM39 70.4517C38.3068 70.4517 37.742 69.8881 37.742 69.1936C37.742 68.4992 38.3068 67.9356 39 67.9356C39.6932 67.9356 40.2581 68.4992 40.2581 69.1936C40.2581 69.8881 39.6932 70.4517 39 70.4517Z" fill="#FFB400"></path>
    </symbol>
    <symbol fill="none" xmlns="http://www.w3.org/2000/svg" viewBox="0 0 68 68" id="servicesUi">
        <path d="M31.6094 49.3384C31.0591 49.3384 30.6133 49.7844 30.6133 50.3345C30.6133 50.8846 31.0591 51.3306 31.6094 51.3306H36.3906C36.9409 51.3306 37.3867 50.8846 37.3867 50.3345C37.3867 49.7844 36.9409 49.3384 36.3906 49.3384H31.6094Z" fill="#FFB400"></path>
        <path d="M11.9531 33.8716H18.5374C18.9396 34.9183 19.9528 35.6646 21.1394 35.6646C22.3259 35.6646 23.3391 34.9183 23.7413 33.8716H25.0573C25.6076 33.8716 26.0534 33.4256 26.0534 32.8755C26.0534 32.3254 25.6076 31.8794 25.0573 31.8794H23.7413C23.3391 30.8327 22.3259 30.0864 21.1394 30.0864C19.9528 30.0864 18.9396 30.8327 18.5374 31.8794H11.9531C11.4029 31.8794 10.957 32.3254 10.957 32.8755C10.957 33.4256 11.4029 33.8716 11.9531 33.8716ZM21.1394 32.0786C21.5788 32.0786 21.9362 32.436 21.9362 32.8755C21.9362 33.315 21.5788 33.6724 21.1394 33.6724C20.6999 33.6724 20.3425 33.315 20.3425 32.8755C20.3425 32.436 20.6999 32.0786 21.1394 32.0786Z" fill="#FFB400"></path>
        <path d="M11.9531 28.1606H13.2249C13.6271 29.2073 14.6403 29.9536 15.8269 29.9536C17.0134 29.9536 18.0266 29.2073 18.4288 28.1606H25.0573C25.6076 28.1606 26.0534 27.7147 26.0534 27.1646C26.0534 26.6144 25.6076 26.1685 25.0573 26.1685H18.4288C18.0266 25.1218 17.0134 24.3755 15.8269 24.3755C14.6403 24.3755 13.6271 25.1218 13.2249 26.1685H11.9531C11.4029 26.1685 10.957 26.6144 10.957 27.1646C10.957 27.7147 11.4029 28.1606 11.9531 28.1606ZM15.8269 26.3677C16.2663 26.3677 16.6237 26.7251 16.6237 27.1646C16.6237 27.604 16.2663 27.9614 15.8269 27.9614C15.3874 27.9614 15.03 27.604 15.03 27.1646C15.03 26.7251 15.3874 26.3677 15.8269 26.3677Z" fill="#FFB400"></path>
        <path d="M25.2566 18.9966C25.8067 18.9966 26.2527 18.5506 26.2527 18.0005C26.2527 17.4504 25.8067 17.0044 25.2566 17.0044C24.7065 17.0044 24.2605 17.4504 24.2605 18.0005C24.2605 18.5506 24.7065 18.9966 25.2566 18.9966Z" fill="#FFB400"></path>
        <path d="M22.5117 18.9966C23.0618 18.9966 23.5078 18.5506 23.5078 18.0005C23.5078 17.4504 23.0618 17.0044 22.5117 17.0044C21.9616 17.0044 21.5156 17.4504 21.5156 18.0005C21.5156 18.5506 21.9616 18.9966 22.5117 18.9966Z" fill="#FFB400"></path>
        <path d="M19.7668 18.9966C20.317 18.9966 20.7629 18.5506 20.7629 18.0005C20.7629 17.4504 20.317 17.0044 19.7668 17.0044C19.2167 17.0044 18.7708 17.4504 18.7708 18.0005C18.7708 18.5506 19.2167 18.9966 19.7668 18.9966Z" fill="#FFB400"></path>
        <path d="M65.0117 6.7048H64.6386L64.9169 6.42655C65.7503 5.59316 65.7503 4.23701 64.9169 3.40361L62.7364 1.22309C61.903 0.389828 60.547 0.389828 59.7134 1.22309L54.2321 6.70466H2.98828C1.34061 6.70466 0 8.04514 0 9.69294V51.0593C0 53.0732 1.63838 54.7116 3.65234 54.7116H27.2458V61.758H22.4453C21.1638 61.758 20.1211 62.8007 20.1211 64.0822V65.0775C20.1211 66.359 21.1638 67.4017 22.4453 67.4017H45.5547C46.8362 67.4017 47.8789 66.359 47.8789 65.0775V64.0822C47.8789 62.8007 46.8362 61.758 45.5547 61.758H40.7542V54.7116H51.3984C51.9487 54.7116 52.3945 54.2656 52.3945 53.7155C52.3945 53.1654 51.9487 52.7194 51.3984 52.7194H3.65234C2.73687 52.7194 1.99219 51.9747 1.99219 51.0593V48.1108H66.0078V51.0593C66.0078 51.9747 65.2631 52.7194 64.3477 52.7194H56.0469C55.4966 52.7194 55.0508 53.1654 55.0508 53.7155C55.0508 54.2656 55.4966 54.7116 56.0469 54.7116H64.3477C66.3616 54.7116 68 53.0732 68 51.0593V9.69308C68 8.04541 66.6594 6.7048 65.0117 6.7048ZM45.5547 63.7503C45.7378 63.7503 45.8867 63.8993 45.8867 64.0823V65.0776C45.8867 65.2606 45.7378 65.4096 45.5547 65.4096H22.4453C22.2622 65.4096 22.1133 65.2606 22.1133 65.0776V64.0823C22.1133 63.8993 22.2622 63.7503 22.4453 63.7503H45.5547ZM29.238 54.7119H38.7621V61.7582H29.238V54.7119ZM61.1222 2.63197C61.179 2.57526 61.2712 2.57539 61.3278 2.63197L63.5081 4.81235C63.5649 4.86906 63.5649 4.96137 63.5081 5.01795L61.4276 7.09845L59.0417 4.71248L61.1222 2.63197ZM57.6329 6.12122L60.0188 8.50719L59.324 9.20194L56.9382 6.81596L57.6329 6.12122ZM55.5294 8.2247L57.9154 10.6107L46.1282 22.3979L43.7422 20.0119L55.5294 8.2247ZM54.0547 17.3315C55.4095 17.3315 56.5117 18.4337 56.5117 19.7886C56.5117 21.1434 55.4095 22.2456 54.0547 22.2456C52.6999 22.2456 51.5977 21.1434 51.5977 19.7886C51.5977 19.7727 51.5998 19.7575 51.6 19.7417L54.0082 17.3339C54.0237 17.3336 54.039 17.3315 54.0547 17.3315ZM44.3984 23.4857L41.4504 24.6897L42.6545 21.7417L44.3984 23.4857ZM66.0078 46.1189H1.99219V9.69308C1.99219 9.1439 2.43897 8.69698 2.98828 8.69698H52.2401L50.7212 10.2158H16.8672C16.3169 10.2158 15.8711 10.6618 15.8711 11.2119C15.8711 11.762 16.3169 12.208 16.8672 12.208H48.7292L41.7033 19.2343C41.5047 19.4346 41.3494 19.6684 41.2425 19.93L39.0175 25.3774C38.8134 25.8777 38.9284 26.4479 39.3105 26.8299C39.567 27.0863 39.908 27.2223 40.2559 27.2223C40.4264 27.2223 40.5984 27.1897 40.7629 27.1226L46.2103 24.8977C46.4645 24.7939 46.6918 24.6435 46.8884 24.4529L49.9186 21.4231C50.5714 23.0698 52.1784 24.2379 54.0548 24.2379C56.5081 24.2379 58.504 22.242 58.504 19.7887C58.504 17.9126 57.3362 16.3057 55.6897 15.6528L59.1348 12.2081H62.4968V42.608H61.9688L58.359 36.3556C58.0841 35.879 57.4745 35.7158 56.9983 35.991C56.5219 36.2661 56.3587 36.8753 56.6338 37.3517L59.6685 42.608H45.7538L44.2614 40.0231L51.2187 27.9726L54.3094 33.326C54.5846 33.8024 55.1938 33.9658 55.6701 33.6906C56.1465 33.4155 56.3097 32.8063 56.0347 32.3299L52.7373 26.6188C52.4203 26.0698 51.8527 25.742 51.2186 25.742C50.5846 25.742 50.0168 26.0698 49.6998 26.6188L43.1109 38.031L34.6569 23.3883C34.3399 22.8393 33.7722 22.5115 33.138 22.5115C32.5041 22.5115 31.9364 22.8393 31.6193 23.3883L29.3733 27.2785V16.6013C29.3733 15.3198 28.3306 14.2771 27.0491 14.2771H9.96094C8.67943 14.2771 7.63672 15.3198 7.63672 16.6013V38.3826C7.63672 39.298 8.3814 40.0427 9.29688 40.0427H22.0042L20.5231 42.6081H5.50335V12.208H12.2188C12.769 12.208 13.2148 11.762 13.2148 11.2119C13.2148 10.6618 12.769 10.2158 12.2188 10.2158H5.17132C4.25584 10.2158 3.51116 10.9605 3.51116 11.876V42.9399C3.51116 43.8554 4.25584 44.6001 5.17132 44.6001H62.8288C63.7443 44.6001 64.489 43.8554 64.489 42.9399V11.876C64.489 10.9605 63.7443 10.2158 62.8288 10.2158H61.1272L62.6463 8.69698H65.0117C65.561 8.69698 66.0078 9.1439 66.0078 9.69308V46.1189ZM27.3816 22.1178V38.0503H9.62891V22.1178H27.3816ZM9.62891 20.1256V16.6011C9.62891 16.418 9.77779 16.269 9.96094 16.269H27.0495C27.2327 16.269 27.3816 16.418 27.3816 16.6011V20.1256H9.62891ZM24.3047 40.0425H27.7136C28.6291 40.0425 29.3737 39.2978 29.3737 38.3823V36.2723C29.6229 36.3918 29.9003 36.4565 30.1909 36.4565C30.8709 36.4565 31.4797 36.1048 31.8196 35.5161L33.5148 32.58C33.5661 32.4913 33.6445 32.4725 33.7009 32.4725C33.7576 32.4725 33.836 32.4913 33.8871 32.58L34.9322 34.3901C35.2722 34.9791 35.8812 35.3307 36.5613 35.3307C37.2413 35.3307 37.8502 34.9791 38.1901 34.3902L38.4496 33.9408L43.4535 42.6077H22.8236L24.3047 40.0425ZM29.3737 32.9379V31.2626L33.1386 24.7419L37.2993 31.9486L36.5612 33.2271L35.6123 31.5838C35.2134 30.8927 34.4988 30.4802 33.7008 30.4802C32.9028 30.4802 32.1883 30.8927 31.7893 31.5838L30.1905 34.3529L29.3737 32.9379Z" fill="#FFB400"></path>
    </symbol>
    <symbol fill="none" xmlns="http://www.w3.org/2000/svg" viewBox="0 0 66 54" id="servicesWeb">
        <path d="M62.2188 0.4375H3.78125C2.79531 0.43859 1.85007 0.830736 1.1529 1.5279C0.455736 2.22507 0.0635898 3.17031 0.0625 4.15625V41.3438C0.0635898 42.3297 0.455736 43.2749 1.1529 43.9721C1.85007 44.6693 2.79531 45.0614 3.78125 45.0625H25.0552L23.7802 48.25H18.125C17.8432 48.25 17.573 48.3619 17.3737 48.5612C17.1744 48.7605 17.0625 49.0307 17.0625 49.3125V51.4375H10.6875C10.4057 51.4375 10.1355 51.5494 9.9362 51.7487C9.73694 51.948 9.625 52.2182 9.625 52.5C9.625 52.7818 9.73694 53.052 9.9362 53.2513C10.1355 53.4506 10.4057 53.5625 10.6875 53.5625H55.3125C55.5943 53.5625 55.8645 53.4506 56.0638 53.2513C56.2631 53.052 56.375 52.7818 56.375 52.5C56.375 52.2182 56.2631 51.948 56.0638 51.7487C55.8645 51.5494 55.5943 51.4375 55.3125 51.4375H48.9375V49.3125C48.9375 49.0307 48.8256 48.7605 48.6263 48.5612C48.427 48.3619 48.1568 48.25 47.875 48.25H42.2198L40.9448 45.0625H62.2188C63.2047 45.0614 64.1499 44.6693 64.8471 43.9721C65.5443 43.2749 65.9364 42.3297 65.9375 41.3438V4.15625C65.9364 3.17031 65.5443 2.22507 64.8471 1.5279C64.1499 0.830736 63.2047 0.43859 62.2188 0.4375ZM46.8125 50.375V51.4375H19.1875V50.375H46.8125ZM26.0698 48.25L27.3448 45.0625H38.6552L39.9302 48.25H26.0698ZM63.8125 41.3438C63.8121 41.7663 63.6441 42.1715 63.3453 42.4703C63.0465 42.7691 62.6413 42.9371 62.2188 42.9375H3.78125C3.35867 42.9371 2.9535 42.7691 2.65469 42.4703C2.35588 42.1715 2.18785 41.7663 2.1875 41.3438V38.6875H63.8125V41.3438ZM63.8125 36.5625H2.1875V4.15625C2.18785 3.73367 2.35588 3.3285 2.65469 3.02969C2.9535 2.73088 3.35867 2.56285 3.78125 2.5625H62.2188C62.6413 2.56285 63.0465 2.73088 63.3453 3.02969C63.6441 3.3285 63.8121 3.73367 63.8125 4.15625V36.5625Z" fill="#FFB400"></path>
        <path d="M28.167 27.888C28.2836 27.9646 28.4142 28.0174 28.5513 28.0435C28.6884 28.0696 28.8293 28.0684 28.9659 28.04C29.1025 28.0117 29.2322 27.9567 29.3476 27.8782C29.4629 27.7997 29.5617 27.6992 29.6383 27.5826L38.0055 14.8326C38.1601 14.597 38.2148 14.3096 38.1576 14.0337C38.1003 13.7578 37.9358 13.5159 37.7003 13.3613C37.4647 13.2066 37.1773 13.1519 36.9014 13.2092C36.6255 13.2664 36.3836 13.4309 36.229 13.6665L27.8618 26.4165C27.7852 26.5331 27.7323 26.6637 27.7062 26.8008C27.68 26.9379 27.6812 27.0788 27.7095 27.2155C27.7379 27.3521 27.7928 27.4819 27.8713 27.5973C27.9498 27.7127 28.0503 27.8115 28.167 27.888Z" fill="#FFB400"></path>
        <path d="M39.7573 27.8165C39.9738 27.9969 40.2531 28.0839 40.5337 28.0583C40.8143 28.0328 41.0733 27.8968 41.2537 27.6804L46.5662 21.3054C46.7253 21.1144 46.8124 20.8738 46.8124 20.6252C46.8124 20.3767 46.7253 20.136 46.5662 19.9451L41.2537 13.5701C41.1647 13.462 41.0551 13.3726 40.9314 13.307C40.8077 13.2413 40.6723 13.2008 40.5328 13.1878C40.3934 13.1747 40.2528 13.1893 40.119 13.2307C39.9853 13.2722 39.861 13.3397 39.7534 13.4293C39.6459 13.519 39.5571 13.629 39.4921 13.7531C39.4272 13.8772 39.3875 14.0128 39.3752 14.1523C39.3629 14.2918 39.3783 14.4324 39.4205 14.5659C39.4627 14.6994 39.5309 14.8233 39.6212 14.9304L44.3668 20.6252L39.6212 26.3201C39.4408 26.5366 39.3538 26.8159 39.3793 27.0965C39.4049 27.3771 39.5408 27.6361 39.7573 27.8165Z" fill="#FFB400"></path>
        <path d="M24.7462 27.6804C24.8352 27.7884 24.9448 27.8779 25.0685 27.9435C25.1922 28.0091 25.3276 28.0496 25.4671 28.0627C25.6065 28.0758 25.7471 28.0612 25.8809 28.0197C26.0146 27.9782 26.1389 27.9107 26.2465 27.8211C26.354 27.7315 26.4428 27.6214 26.5078 27.4974C26.5727 27.3733 26.6124 27.2376 26.6247 27.0981C26.637 26.9586 26.6216 26.8181 26.5794 26.6845C26.5372 26.551 26.469 26.4272 26.3787 26.3201L21.6331 20.6252L26.3787 14.9304C26.469 14.8233 26.5372 14.6994 26.5794 14.5659C26.6216 14.4324 26.637 14.2918 26.6247 14.1523C26.6124 14.0128 26.5727 13.8772 26.5078 13.7531C26.4428 13.629 26.354 13.519 26.2465 13.4293C26.1389 13.3397 26.0146 13.2722 25.8809 13.2307C25.7471 13.1893 25.6065 13.1747 25.4671 13.1878C25.3276 13.2008 25.1922 13.2413 25.0685 13.307C24.9448 13.3726 24.8352 13.462 24.7462 13.5701L19.4337 19.9451C19.2746 20.136 19.1875 20.3767 19.1875 20.6252C19.1875 20.8737 19.2746 21.1144 19.4337 21.3054L24.7462 27.6804Z" fill="#FFB400"></path>
    </symbol>
    <!--    Services icon-->


</svg>

